<?xml version="1.0" encoding="utf-8"?>
<!-- Generator: Adobe Illustrator 19.0.0, SVG Export Plug-In . SVG Version: 6.00 Build 0)  -->
<svg version="1.1" id="Layer_1" xmlns="http://www.w3.org/2000/svg" xmlns:xlink="http://www.w3.org/1999/xlink" x="0px" y="0px"
	 viewBox="0 0 95.6 64.7" style="enable-background:new 0 0 95.6 64.7;" xml:space="preserve">
<style type="text/css">
	.st0{fill:#B00000;}
	.st1{fill:none;stroke:#000000;stroke-miterlimit:10;}
</style>
<g>
	<path class="st0" d="M40.7,0H15.3c-1.4,0-2.6,1.2-2.6,2.6V11c0,0.9,0.4,1.7,1.2,2.2l8.3,5.5c-3.8,2.1-6.5,6.2-6.5,10.8
		c0,6.8,5.5,12.3,12.3,12.3s12.3-5.5,12.3-12.3c0-4.7-2.6-8.7-6.5-10.8l8.3-5.5c0.7-0.5,1.2-1.3,1.2-2.2V2.6C43.3,1.2,42.1,0,40.7,0
		z M37.7,29.6c0,5.4-4.3,9.7-9.7,9.7c-5.4,0-9.7-4.3-9.7-9.7c0-5.4,4.3-9.7,9.7-9.7C33.3,19.9,37.7,24.2,37.7,29.6z M40.7,11l-5,3.3
		v-5c0-0.5-0.4-0.9-0.9-0.9S34,8.9,34,9.4v6.1l-3.1,2.1c-0.9-0.2-1.9-0.3-2.9-0.3c-1,0-1.9,0.1-2.9,0.3l-3.2-2.1V9.4
		c0-0.5-0.4-0.9-0.9-0.9c-0.5,0-0.9,0.4-0.9,0.9v4.9L15.3,11V2.6h4.9v2.3c0,0.5,0.4,0.9,0.9,0.9c0.5,0,0.9-0.4,0.9-0.9V2.6h12v2.3
		c0,0.5,0.4,0.9,0.9,0.9s0.9-0.4,0.9-0.9V2.6h5V11z"/>
	<path class="st0" d="M26.4,22.7L25,25.7l-3.2,0.5c-0.7,0.1-1.2,0.6-1.4,1.2c-0.2,0.6,0,1.3,0.4,1.8l2.3,2.3l-0.6,3.2
		c-0.1,0.7,0.2,1.3,0.7,1.7c0.3,0.2,0.7,0.3,1,0.3c0.3,0,0.6-0.1,0.8-0.2l2.9-1.5l2.9,1.5c0.3,0.1,0.5,0.2,0.8,0.2
		c0.4,0,0.7-0.1,1-0.3c0.5-0.4,0.8-1,0.7-1.7l-0.6-3.2l2.3-2.3c0.5-0.5,0.6-1.2,0.4-1.8c-0.2-0.6-0.7-1.1-1.4-1.2L31,25.7l-1.4-2.9
		c-0.3-0.6-0.9-1-1.6-1C27.3,21.8,26.7,22.1,26.4,22.7z M29.8,27.3l4.1,0.6l-3,2.9l0.7,4.1L28,32.9l-3.7,1.9l0.7-4.1l-3-2.9l4.1-0.6
		l1.8-3.7L29.8,27.3z"/>
</g>
<polyline class="st1" points="0,64.6 64,64.6 95.2,16.5 "/>
</svg>
