<?xml version="1.0" encoding="utf-8"?>
<!-- Generator: Adobe Illustrator 19.0.0, SVG Export Plug-In . SVG Version: 6.00 Build 0)  -->
<svg version="1.1" id="Layer_1" xmlns="http://www.w3.org/2000/svg" xmlns:xlink="http://www.w3.org/1999/xlink" x="0px" y="0px"
	 viewBox="0 0 35.7 42.7" style="enable-background:new 0 0 35.7 42.7;" xml:space="preserve">
<style type="text/css">
	.st0{fill:#B00000;}
</style>
<g>
	<path class="st0" d="M17.8,20.5c5.7,0,10.3-4.6,10.3-10.3S23.5,0,17.8,0C12.2,0,7.6,4.6,7.6,10.3S12.2,20.5,17.8,20.5z M17.8,2.7
		c4.2,0,7.6,3.4,7.6,7.6s-3.4,7.6-7.6,7.6c-4.2,0-7.6-3.4-7.6-7.6S13.7,2.7,17.8,2.7z"/>
	<path class="st0" d="M35.5,31.1c-2.6-4.4-6.7-7.7-11.5-9.3c-0.6-0.2-1.3,0.1-1.6,0.7c-1,2.1-2.6,3.9-4.5,5.2
		c-1.9-1.3-3.5-3.1-4.5-5.2c-0.3-0.6-1-0.9-1.6-0.7c-4.9,1.5-9,4.8-11.5,9.3c-0.2,0.4-0.2,0.9,0,1.3c3.6,6.3,10.4,10.2,17.7,10.2
		c7.3,0,14-3.9,17.7-10.2C35.8,32.1,35.8,31.5,35.5,31.1z M24.2,24.8c0.7,0.3,1.5,0.6,2.1,1c-1.1,1.9-2.6,4.1-4.6,5.8
		c-0.2-0.2-0.4-0.4-0.7-0.6c-0.5-0.4-1-0.9-1.5-1.3C21.5,28.5,23.1,26.8,24.2,24.8z M16.1,29.8c-0.5,0.4-1,0.8-1.5,1.3
		c-0.2,0.2-0.5,0.4-0.7,0.6c-1.9-1.7-3.5-4-4.6-5.8c0.7-0.4,1.4-0.7,2.1-1C12.6,26.8,14.2,28.5,16.1,29.8z M18.7,40v-5.9
		c0-0.5-0.4-0.9-0.9-0.9c-0.5,0-0.9,0.4-0.9,0.9V40c-5.7-0.3-11-3.3-14-8.2c1.3-2,3-3.7,4.9-5.1c1.3,2.2,3.1,4.8,5.5,6.8
		c0.3,0.3,0.8,0.3,1.1,0c0.4-0.3,0.9-0.7,1.3-1.1c0.7-0.6,1.4-1.2,2.1-1.7c0.7,0.4,1.4,1.1,2.1,1.7c0.5,0.4,0.9,0.8,1.3,1.1
		c0.2,0.1,0.4,0.2,0.5,0.2c0.2,0,0.4-0.1,0.6-0.2c2.4-1.9,4.3-4.6,5.5-6.8c1.9,1.3,3.6,3.1,4.9,5.1C29.7,36.6,24.4,39.7,18.7,40z"/>
</g>
</svg>
