<?xml version="1.0" encoding="utf-8"?>
<!-- Generator: Adobe Illustrator 19.0.0, SVG Export Plug-In . SVG Version: 6.00 Build 0)  -->
<svg version="1.1" id="Layer_1" xmlns="http://www.w3.org/2000/svg" xmlns:xlink="http://www.w3.org/1999/xlink" x="0px" y="0px"
	 viewBox="0 0 30.4 38.9" style="enable-background:new 0 0 30.4 38.9;" xml:space="preserve">
<style type="text/css">
	.st0{fill:#B00000;}
</style>
<g>
	<path class="st0" d="M27.9,0H13.5c-0.6,0-1.3,0.3-1.7,0.7l-11,11C0.3,12.2,0,12.8,0,13.5v23c0,1.3,1.1,2.4,2.4,2.4h25.5
		c1.3,0,2.4-1.1,2.4-2.4v-34C30.4,1.1,29.3,0,27.9,0z M12,3.9v8H4L12,3.9z M27.9,36.5H2.4V13.5h10.4c0.4,0,0.8-0.4,0.8-0.8V2.4h14.3
		V36.5z"/>
	<path class="st0" d="M6.1,17.8c-0.4,0-0.8,0.4-0.8,0.8c0,0.4,0.4,0.8,0.8,0.8h17.5c0.4,0,0.8-0.4,0.8-0.8c0-0.4-0.4-0.8-0.8-0.8
		H6.1z"/>
	<path class="st0" d="M6.1,23.8h8.8c0.4,0,0.8-0.4,0.8-0.8c0-0.4-0.4-0.8-0.8-0.8H6.1c-0.4,0-0.8,0.4-0.8,0.8
		C5.3,23.4,5.7,23.8,6.1,23.8z"/>
	<path class="st0" d="M19.2,22.2c-0.4,0-0.8,0.4-0.8,0.8c0,0.4,0.4,0.8,0.8,0.8H24c0.4,0,0.8-0.4,0.8-0.8c0-0.4-0.4-0.8-0.8-0.8
		H19.2z"/>
	<path class="st0" d="M6.1,28.1h17.5c0.4,0,0.8-0.4,0.8-0.8c0-0.4-0.4-0.8-0.8-0.8H6.1c-0.4,0-0.8,0.4-0.8,0.8
		C5.3,27.8,5.7,28.1,6.1,28.1z"/>
	<path class="st0" d="M24,30.8h-8.8c-0.4,0-0.8,0.4-0.8,0.8c0,0.4,0.4,0.8,0.8,0.8H24c0.4,0,0.8-0.4,0.8-0.8
		C24.8,31.2,24.4,30.8,24,30.8z"/>
	<path class="st0" d="M10.9,30.8H6.1c-0.4,0-0.8,0.4-0.8,0.8c0,0.4,0.4,0.8,0.8,0.8h4.8c0.4,0,0.8-0.4,0.8-0.8
		C11.7,31.2,11.3,30.8,10.9,30.8z"/>
</g>
</svg>
