<?xml version="1.0" encoding="utf-8"?>
<!-- Generator: Adobe Illustrator 19.0.0, SVG Export Plug-In . SVG Version: 6.00 Build 0)  -->
<svg version="1.1" id="Layer_1" xmlns="http://www.w3.org/2000/svg" xmlns:xlink="http://www.w3.org/1999/xlink" x="0px" y="0px"
	 viewBox="0 0 95.6 59.2" style="enable-background:new 0 0 95.6 59.2;" xml:space="preserve">
<style type="text/css">
	.st0{fill:#B00000;}
	.st1{fill:none;stroke:#000000;stroke-miterlimit:10;}
</style>
<path class="st0" d="M54.7,8.6L36,0.2C35.7,0.1,35.3,0,34.9,0c-0.4,0-0.7,0.1-1.1,0.2L15.2,8.6c-1,0.4-1.6,1.4-1.6,2.4
	c0,1,0.5,1.8,1.3,2.3c0.2,0.3,0.5,0.5,0.8,0.7c0.5,0.4,0.6,0.5,0.6,0.8c0,0.3-0.1,0.4-0.6,0.8c-0.5,0.4-1.3,1-1.3,2.2
	s0.8,1.8,1.3,2.2c0.4,0.3,0.5,0.4,0.6,0.6c-0.8,0.1-1.5,0.7-1.6,1.5l-0.5,3.7c-0.1,0.5,0.1,1,0.4,1.4c0.3,0.4,0.8,0.6,1.3,0.6h2.6
	c0.5,0,1-0.2,1.3-0.6c0.3-0.4,0.5-0.9,0.4-1.4l-0.5-3.7c-0.1-0.9-0.8-1.5-1.7-1.6c-0.1-1.1-0.8-1.6-1.3-2c-0.5-0.4-0.6-0.5-0.6-0.8
	c0-0.3,0.1-0.4,0.6-0.8c0.5-0.4,1.3-1,1.3-2.2c0,0,0,0,0,0l3.2,1.4c0,0.1,0,0.2,0,0.3v7c0,5.1,9.7,5.6,13.9,5.6
	c4.2,0,13.9-0.5,13.9-5.6v-7.1c0-0.1,0-0.2,0-0.4l5.7-2.5c1-0.4,1.6-1.4,1.6-2.4S55.6,9,54.7,8.6z M15.9,26.1l0.5-3.7H18l0.5,3.7
	H15.9z M46.3,20.5c-0.5,0.6-1.6,1.3-3.6,1.9c-0.4,0.1-0.7,0.2-1.1,0.3c-0.5,0.1-0.8,0.6-0.7,1.1c0.1,0.4,0.5,0.7,0.9,0.7
	c0.1,0,0.1,0,0.2,0c0.4-0.1,0.8-0.2,1.2-0.3c1.3-0.4,2.3-0.8,3.1-1.3v0.7c0,1.6-5,2.9-11.2,2.9c-6.2,0-11.2-1.3-11.2-2.9v-0.7
	c2.4,1.5,6.9,2.3,11.3,2.3c1,0,2,0,3-0.1c0.5,0,0.9-0.5,0.8-1c0-0.5-0.5-0.9-1-0.8c-0.9,0.1-1.9,0.1-2.9,0.1
	c-6.2,0-10.5-1.6-11.3-2.9v-3l9.9,4.4c0.3,0.2,0.7,0.2,1.1,0.2c0.4,0,0.7-0.1,1.1-0.2l10.3-4.6V20.5z M34.9,19.3L16.2,11l18.7-8.3
	L53.6,11L34.9,19.3z"/>
<polyline class="st1" points="0,59.1 64,59.1 95.2,11 "/>
</svg>
