<?xml version="1.0" encoding="utf-8"?>
<!-- Generator: Adobe Illustrator 19.0.0, SVG Export Plug-In . SVG Version: 6.00 Build 0)  -->
<svg version="1.1" id="Layer_1" xmlns="http://www.w3.org/2000/svg" xmlns:xlink="http://www.w3.org/1999/xlink" x="0px" y="0px"
	 viewBox="0 0 38.6 29.5" style="enable-background:new 0 0 38.6 29.5;" xml:space="preserve">
<style type="text/css">
	.st0{fill:#B00000;}
</style>
<path class="st0" d="M34.8,4h-7.5V3.8c0-2.1-1.7-3.8-3.8-3.8H15c-2.1,0-3.8,1.7-3.8,3.8V4H3.8C1.7,4,0,5.7,0,7.7v18
	c0,2.1,1.7,3.8,3.8,3.8h31c2.1,0,3.8-1.7,3.8-3.8v-18C38.6,5.7,36.9,4,34.8,4z M13.7,3.8c0-0.7,0.6-1.4,1.4-1.4h8.5
	c0.7,0,1.4,0.6,1.4,1.4V4H13.7V3.8z M3.8,6.4h31c0.7,0,1.4,0.6,1.4,1.4v2.5c0,0.1,0,0.2,0,0.3c0,0.6-0.2,1.5-1.8,2L25,14.9
	c-0.1-1.2-1.3-2.2-2.6-2.2h-6.1c-1.4,0-2.5,1-2.6,2.2l-9.4-2.4c-1.4-0.5-1.7-1.2-1.8-1.8V7.7C2.4,7,3,6.4,3.8,6.4z M23.4,15.2v1.6
	c0,0.5-0.5,0.8-1,0.8h-6.1c-0.6,0-1-0.4-1-0.8v-1.6c0-0.5,0.5-0.8,1-0.8h6.1C22.9,14.3,23.4,14.7,23.4,15.2z M34.8,27h-31
	c-0.7,0-1.4-0.6-1.4-1.4v-0.3c0.5,0.3,1.1,0.5,1.7,0.5h22.6c0.4,0,0.8-0.4,0.8-0.8c0-0.4-0.4-0.8-0.8-0.8H4.1
	c-0.8,0-1.5-0.6-1.7-1.3v-9.4c0.4,0.2,0.8,0.5,1.3,0.6c0,0,0,0,0.1,0l9.8,2.5v0.1c0,1.3,1.2,2.4,2.6,2.4h6.1c1.5,0,2.6-1.1,2.6-2.4
	v-0.2l9.7-2.5c0,0,0,0,0.1,0c0.5-0.2,1-0.4,1.4-0.7v9.5c-0.2,0.8-0.8,1.3-1.7,1.3h-3.9c-0.4,0-0.8,0.4-0.8,0.8
	c0,0.4,0.4,0.8,0.8,0.8h3.9c0.6,0,1.2-0.2,1.7-0.5v0.3C36.1,26.4,35.5,27,34.8,27z"/>
</svg>
