<?xml version="1.0" encoding="utf-8"?>
<!-- Generator: Adobe Illustrator 19.0.0, SVG Export Plug-In . SVG Version: 6.00 Build 0)  -->
<svg version="1.1" id="Layer_1" xmlns="http://www.w3.org/2000/svg" xmlns:xlink="http://www.w3.org/1999/xlink" x="0px" y="0px"
	 viewBox="0 0 95.6 66.8" style="enable-background:new 0 0 95.6 66.8;" xml:space="preserve">
<style type="text/css">
	.st0{fill:#B00000;}
	.st1{fill:none;stroke:#000000;stroke-miterlimit:10;}
</style>
<g>
	<path class="st0" d="M44.1,0H29.6c-0.6,0-1.3,0.3-1.7,0.7l-11,11c-0.5,0.5-0.7,1.1-0.7,1.7v23c0,1.3,1.1,2.4,2.4,2.4h25.5
		c1.3,0,2.4-1.1,2.4-2.4v-34C46.6,1.1,45.5,0,44.1,0z M28.2,3.9v8h-8L28.2,3.9z M44.1,36.5H18.6V13.5H29c0.4,0,0.8-0.4,0.8-0.8V2.4
		h14.3V36.5z"/>
	<path class="st0" d="M22.3,17.8c-0.4,0-0.8,0.4-0.8,0.8c0,0.4,0.4,0.8,0.8,0.8h17.5c0.4,0,0.8-0.4,0.8-0.8c0-0.4-0.4-0.8-0.8-0.8
		H22.3z"/>
	<path class="st0" d="M22.3,23.8h8.8c0.4,0,0.8-0.4,0.8-0.8c0-0.4-0.4-0.8-0.8-0.8h-8.8c-0.4,0-0.8,0.4-0.8,0.8
		C21.5,23.4,21.8,23.8,22.3,23.8z"/>
	<path class="st0" d="M35.4,22.2c-0.4,0-0.8,0.4-0.8,0.8c0,0.4,0.4,0.8,0.8,0.8h4.8c0.4,0,0.8-0.4,0.8-0.8c0-0.4-0.4-0.8-0.8-0.8
		H35.4z"/>
	<path class="st0" d="M22.3,28.1h17.5c0.4,0,0.8-0.4,0.8-0.8c0-0.4-0.4-0.8-0.8-0.8H22.3c-0.4,0-0.8,0.4-0.8,0.8
		C21.5,27.8,21.8,28.1,22.3,28.1z"/>
	<path class="st0" d="M40.1,30.8h-8.8c-0.4,0-0.8,0.4-0.8,0.8c0,0.4,0.4,0.8,0.8,0.8h8.8c0.4,0,0.8-0.4,0.8-0.8
		C40.9,31.2,40.6,30.8,40.1,30.8z"/>
	<path class="st0" d="M27.1,30.8h-4.8c-0.4,0-0.8,0.4-0.8,0.8c0,0.4,0.4,0.8,0.8,0.8h4.8c0.4,0,0.8-0.4,0.8-0.8
		C27.9,31.2,27.5,30.8,27.1,30.8z"/>
</g>
<polyline class="st1" points="0,66.7 64,66.7 95.2,18.7 "/>
</svg>
