<?xml version="1.0" encoding="utf-8"?>
<!-- Generator: Adobe Illustrator 19.0.0, SVG Export Plug-In . SVG Version: 6.00 Build 0)  -->
<svg version="1.1" id="Layer_1" xmlns="http://www.w3.org/2000/svg" xmlns:xlink="http://www.w3.org/1999/xlink" x="0px" y="0px"
	 viewBox="0 0 95.6 61.4" style="enable-background:new 0 0 95.6 61.4;" xml:space="preserve">
<style type="text/css">
	.st0{fill:#B00000;}
	.st1{fill:none;stroke:#000000;stroke-miterlimit:10;}
</style>
<path class="st0" d="M50.5,4H43V3.8C43,1.7,41.3,0,39.2,0h-8.5C28.7,0,27,1.7,27,3.8V4h-7.5c-2.1,0-3.8,1.7-3.8,3.8v18
	c0,2.1,1.7,3.8,3.8,3.8h31c2.1,0,3.8-1.7,3.8-3.8v-18C54.3,5.7,52.6,4,50.5,4z M29.4,3.8c0-0.7,0.6-1.4,1.4-1.4h8.5
	c0.7,0,1.4,0.6,1.4,1.4V4H29.4V3.8z M19.5,6.4h31c0.7,0,1.4,0.6,1.4,1.4v2.5c0,0.1,0,0.2,0,0.3c0,0.6-0.2,1.5-1.8,2l-9.3,2.4
	c-0.1-1.2-1.3-2.2-2.6-2.2H32c-1.4,0-2.5,1-2.6,2.2L20,12.6c-1.4-0.5-1.7-1.2-1.8-1.8V7.7C18.1,7,18.7,6.4,19.5,6.4z M39.1,15.2v1.6
	c0,0.5-0.5,0.8-1,0.8H32c-0.6,0-1-0.4-1-0.8v-1.6c0-0.5,0.5-0.8,1-0.8h6.1C38.6,14.3,39.1,14.7,39.1,15.2z M50.5,27h-31
	c-0.7,0-1.4-0.6-1.4-1.4v-0.3c0.5,0.3,1.1,0.5,1.7,0.5h22.6c0.4,0,0.8-0.4,0.8-0.8c0-0.4-0.4-0.8-0.8-0.8H19.8
	c-0.8,0-1.5-0.6-1.7-1.3v-9.4c0.4,0.2,0.8,0.5,1.3,0.6c0,0,0,0,0.1,0l9.8,2.5v0.1c0,1.3,1.2,2.4,2.6,2.4h6.1c1.5,0,2.6-1.1,2.6-2.4
	v-0.2l9.7-2.5c0,0,0,0,0.1,0c0.5-0.2,1-0.4,1.4-0.7v9.5c-0.2,0.8-0.8,1.3-1.7,1.3h-3.9c-0.4,0-0.8,0.4-0.8,0.8
	c0,0.4,0.4,0.8,0.8,0.8h3.9c0.6,0,1.2-0.2,1.7-0.5v0.3C51.9,26.4,51.3,27,50.5,27z"/>
<polyline class="st1" points="0,61.3 64,61.3 95.2,13.2 "/>
</svg>
