<?xml version="1.0" encoding="utf-8"?>
<!-- Generator: Adobe Illustrator 19.0.0, SVG Export Plug-In . SVG Version: 6.00 Build 0)  -->
<svg version="1.1" id="Layer_1" xmlns="http://www.w3.org/2000/svg" xmlns:xlink="http://www.w3.org/1999/xlink" x="0px" y="0px"
	 viewBox="0 0 30.6 41.9" style="enable-background:new 0 0 30.6 41.9;" xml:space="preserve">
<style type="text/css">
	.st0{fill:#B00000;}
</style>
<g>
	<path class="st0" d="M28,0H2.6C1.2,0,0,1.2,0,2.6V11c0,0.9,0.4,1.7,1.2,2.2l8.3,5.5C5.6,20.8,3,24.9,3,29.6
		c0,6.8,5.5,12.3,12.3,12.3s12.3-5.5,12.3-12.3c0-4.7-2.6-8.7-6.5-10.8l8.3-5.5c0.7-0.5,1.2-1.3,1.2-2.2V2.6C30.6,1.2,29.4,0,28,0z
		 M25,29.6c0,5.4-4.3,9.7-9.7,9.7c-5.4,0-9.7-4.3-9.7-9.7c0-5.4,4.3-9.7,9.7-9.7C20.6,19.9,25,24.2,25,29.6z M28,11l-5,3.3v-5
		c0-0.5-0.4-0.9-0.9-0.9s-0.9,0.4-0.9,0.9v6.1l-3.1,2.1c-0.9-0.2-1.9-0.3-2.9-0.3c-1,0-1.9,0.1-2.9,0.3l-3.2-2.1V9.4
		c0-0.5-0.4-0.9-0.9-0.9c-0.5,0-0.9,0.4-0.9,0.9v4.9L2.6,11V2.6h4.9v2.3c0,0.5,0.4,0.9,0.9,0.9c0.5,0,0.9-0.4,0.9-0.9V2.6h12v2.3
		c0,0.5,0.4,0.9,0.9,0.9S23,5.4,23,4.9V2.6h5V11z"/>
	<path class="st0" d="M13.7,22.7l-1.4,2.9l-3.2,0.5c-0.7,0.1-1.2,0.6-1.4,1.2c-0.2,0.6,0,1.3,0.4,1.8l2.3,2.3l-0.6,3.2
		c-0.1,0.7,0.2,1.3,0.7,1.7c0.3,0.2,0.7,0.3,1,0.3c0.3,0,0.6-0.1,0.8-0.2l2.9-1.5l2.9,1.5c0.3,0.1,0.5,0.2,0.8,0.2
		c0.4,0,0.7-0.1,1-0.3c0.5-0.4,0.8-1,0.7-1.7l-0.6-3.2l2.3-2.3c0.5-0.5,0.6-1.2,0.4-1.8c-0.2-0.6-0.7-1.1-1.4-1.2l-3.2-0.5l-1.4-2.9
		c-0.3-0.6-0.9-1-1.6-1C14.6,21.8,14,22.1,13.7,22.7z M17.1,27.3l4.1,0.6l-3,2.9l0.7,4.1l-3.7-1.9l-3.7,1.9l0.7-4.1l-3-2.9l4.1-0.6
		l1.8-3.7L17.1,27.3z"/>
</g>
</svg>
