<svg id="Camada_1" xmlns="http://www.w3.org/2000/svg" viewBox="0 0 153 100.8"><style>.st0{fill:#FFFFFF;}</style><path class="st0" d="M2.8 93.9c2 0 3.5 1.5 3.5 3.4 0 2-1.5 3.4-3.6 3.4H0v-6.9h2.8zm-2 6.1h2c1.5 0 2.7-1.2 2.7-2.7 0-1.5-1.2-2.7-2.8-2.7h-2v5.4zM12.1 100.8h-.8v-2.3l-2.7-4.6h.8l2.2 3.6 2.2-3.6h.8L12 98.4v2.4zM22.7 100.8l-4.1-5.5v5.5h-.8v-6.9h.8l4.1 5.5v-5.5h.8v6.9h-.8zM28.2 99l-.8 1.7h-.8l3.1-6.9h.8l3.1 6.9h-.9L32 99h-3.8zm1.9-4.2l-1.5 3.5h3.1l-1.6-3.5zM42.9 100.8v-5.7l-2.5 4.9h-.5l-2.5-4.9v5.7h-.8v-6.9h1l2.5 5 2.5-5h1v6.9h-.7zM47.6 100.8v-6.9h.8v6.9h-.8zM57.9 94.9l-.5.6c-.5-.5-1.3-.9-2-.9-1.6 0-2.8 1.2-2.8 2.7 0 1.5 1.2 2.7 2.8 2.7.8 0 1.5-.3 2-.8l.5.5c-.7.6-1.6 1.1-2.6 1.1-2 0-3.6-1.5-3.6-3.5 0-1.9 1.6-3.5 3.6-3.5 1.1.1 2 .4 2.6 1.1zM66.9 100.8L65.6 96l-1.3 4.8h-1.8l-2.3-6.9h1.9l1.4 5.1 1.3-5.1h1.7l1.4 5.1 1.3-5.1H71l-2.3 6.9h-1.8zM73.6 100.8v-6.9h1.8v6.9h-1.8zM83.5 100.8l-3.2-4.2v4.2h-1.6v-6.9h1.5l3.2 4.2v-4.2H85v6.9h-1.5zM93.2 100.8L90 96.5v4.2h-1.6v-6.9h1.5l3.2 4.2v-4.2h1.6v6.9h-1.5zM99.8 95.2v1.4h3.3V98h-3.3v1.4h3.7v1.4H98v-6.9h5.4v1.4h-3.6zM109.8 98.8h-1.4v1.9h-1.8v-6.9h3.1c1.8 0 2.9.9 2.9 2.4 0 1.1-.4 1.8-1.3 2.2l1.5 2.3h-2l-1-1.9zm-.1-1.4c.8 0 1.2-.4 1.2-1.1 0-.7-.4-1.1-1.2-1.1h-1.3v2.2h1.3zM121.1 94.6l-.7 1.4c-.7-.4-1.6-.7-2.2-.7-.5 0-.8.2-.8.5 0 1.2 3.6.5 3.6 3 0 1.4-1.2 2.1-2.8 2.1-1.1 0-2.3-.4-3.2-1.1l.7-1.3c.7.6 1.8 1 2.5 1 .6 0 .9-.2.9-.6 0-1.2-3.6-.5-3.6-2.9 0-1.3 1.1-2.1 2.7-2.1 1.2-.1 2.2.2 2.9.7z"/><g><path class="st0" d="M129.3 29.5L112 61.6l-6.4-25.3-19.5.4-14.3 25.9-1.1 2-4.4-13.8L93.8 0 70.2 7.5 58.9 28.4c-.2-.5-.4-.6-.4-.6-3.8-5.5-13.3-7.3-18.2-7.6-2.5-.1-5.9.1-7.9.5-7.5 1.1-15.1 4.8-20.7 15-5.7 10.5-9.2 17.5-9.8 19C-3 66.7 3 76.2 8.7 79.1c5.7 3.5 12.6 2.8 16.9 2.8h23l7-13 4.9 13h19.4L93.8 56l6.8 25.9h18.8L153 21l-23.7 8.5zM42.6 58.3c-4.4 7.5-10.2 10-17.4 8-5.9-1.6-6.7-7.3-2.3-15.3.3-.6 3.5-6 3.5-6 3.3-5.3 8.2-8 14.4-5.9 3.9 1.3 5.8 4 6.6 5.6.2.4.4.8.5 1.3l.5 1.8-5.8 10.5z"/></g></svg>