<?xml version="1.0" encoding="utf-8"?>
<!-- Generator: Adobe Illustrator 19.0.0, SVG Export Plug-In . SVG Version: 6.00 Build 0)  -->
<svg version="1.1" id="Camada_1" xmlns="http://www.w3.org/2000/svg" xmlns:xlink="http://www.w3.org/1999/xlink" x="0px" y="0px"
	 viewBox="-83 250.2 153 100.8" style="enable-background:new -83 250.2 153 100.8;" xml:space="preserve">
<path d="M-80.2,344.1c2,0,3.5,1.5,3.5,3.4c0,2-1.5,3.4-3.6,3.4H-83V344h2.8V344.1z M-82.2,350.2h2c1.5,0,2.7-1.2,2.7-2.7
	s-1.2-2.7-2.8-2.7h-2v5.4H-82.2z M-70.9,351h-0.8v-2.3l-2.7-4.6h0.8l2.2,3.6l2.2-3.6h0.8l-2.6,4.5L-70.9,351L-70.9,351z M-60.3,351
	l-4.1-5.5v5.5h-0.8v-6.9h0.8l4.1,5.5v-5.5h0.8v6.9H-60.3z M-54.8,349.2l-0.8,1.7h-0.8l3.1-6.9h0.8l3.1,6.9h-0.9l-0.7-1.7H-54.8z
	 M-52.9,345l-1.5,3.5h3.1L-52.9,345z M-40.1,351v-5.7l-2.5,4.9h-0.5l-2.5-4.9v5.7h-0.8v-6.9h1l2.5,5l2.5-5h1v6.9H-40.1z M-35.4,351
	v-6.9h0.8v6.9H-35.4z M-25.1,345.1l-0.5,0.6c-0.5-0.5-1.3-0.9-2-0.9c-1.6,0-2.8,1.2-2.8,2.7s1.2,2.7,2.8,2.7c0.8,0,1.5-0.3,2-0.8
	l0.5,0.5c-0.7,0.6-1.6,1.1-2.6,1.1c-2,0-3.6-1.5-3.6-3.5c0-1.9,1.6-3.5,3.6-3.5C-26.6,344.1-25.7,344.4-25.1,345.1L-25.1,345.1z
	 M-16.1,351l-1.3-4.8l-1.3,4.8h-1.8l-2.3-6.9h1.9l1.4,5.1l1.3-5.1h1.7l1.4,5.1l1.3-5.1h1.8l-2.3,6.9C-14.3,351-16.1,351-16.1,351z
	 M-9.4,351v-6.9h1.8v6.9H-9.4z M0.5,351l-3.2-4.2v4.2h-1.6v-6.9h1.5l3.2,4.2v-4.2H2v6.9H0.5z M10.2,351L7,346.7v4.2H5.4V344h1.5
	l3.2,4.2V344h1.6v6.9h-1.5V351z M16.8,345.4v1.4h3.3v1.4h-3.3v1.4h3.7v1.4H15v-6.9h5.4v1.4h-3.6V345.4z M26.8,349h-1.4v1.9h-1.8V344
	h3.1c1.8,0,2.9,0.9,2.9,2.4c0,1.1-0.4,1.8-1.3,2.2l1.5,2.3h-2C27.8,350.9,26.8,349,26.8,349z M26.7,347.6c0.8,0,1.2-0.4,1.2-1.1
	s-0.4-1.1-1.2-1.1h-1.3v2.2H26.7z M38.1,344.8l-0.7,1.4c-0.7-0.4-1.6-0.7-2.2-0.7c-0.5,0-0.8,0.2-0.8,0.5c0,1.2,3.6,0.5,3.6,3
	c0,1.4-1.2,2.1-2.8,2.1c-1.1,0-2.3-0.4-3.2-1.1l0.7-1.3c0.7,0.6,1.8,1,2.5,1c0.6,0,0.9-0.2,0.9-0.6c0-1.2-3.6-0.5-3.6-2.9
	c0-1.3,1.1-2.1,2.7-2.1C36.4,344,37.4,344.3,38.1,344.8z"/>
<g>
	<path d="M46.3,279.7L29,311.8l-6.4-25.3l-19.5,0.4l-14.3,25.9l-1.1,2l-4.4-13.8l27.5-50.8l-23.6,7.5l-11.3,20.9
		c-0.2-0.5-0.4-0.6-0.4-0.6c-3.8-5.5-13.3-7.3-18.2-7.6c-2.5-0.1-5.9,0.1-7.9,0.5c-7.5,1.1-15.1,4.8-20.7,15
		c-5.7,10.5-9.2,17.5-9.8,19c-4.9,12,1.1,21.5,6.8,24.4c5.7,3.5,12.6,2.8,16.9,2.8h23l7-13l4.9,13h19.4l13.9-25.9l6.8,25.9h18.8
		L70,271.2L46.3,279.7z M-40.4,308.5c-4.4,7.5-10.2,10-17.4,8c-5.9-1.6-6.7-7.3-2.3-15.3c0.3-0.6,3.5-6,3.5-6
		c3.3-5.3,8.2-8,14.4-5.9c3.9,1.3,5.8,4,6.6,5.6c0.2,0.4,0.4,0.8,0.5,1.3l0.5,1.8L-40.4,308.5z"/>
</g>
</svg>
