<?xml version="1.0" encoding="utf-8"?>
<!-- Generator: Adobe Illustrator 19.0.0, SVG Export Plug-In . SVG Version: 6.00 Build 0)  -->
<svg version="1.1" id="Layer_1" xmlns="http://www.w3.org/2000/svg" xmlns:xlink="http://www.w3.org/1999/xlink" x="0px" y="0px"
	 viewBox="0 0 51.1 53.3" style="enable-background:new 0 0 51.1 53.3;" xml:space="preserve">
<style type="text/css">
	.st0{fill:#B40000;}
	.st1{fill:none;stroke:#000000;stroke-miterlimit:10;}
</style>
<g>
	<path class="st0" d="M29.2,0H15c-0.6,0-1.2,0.2-1.7,0.7L2.5,11.5C2,12,1.8,12.6,1.8,13.2v22.6c0,1.3,1.1,2.4,2.4,2.4h25
		c1.3,0,2.4-1.1,2.4-2.4V2.4C31.6,1.1,30.5,0,29.2,0z M13.5,3.8v7.9H5.7L13.5,3.8z M29.2,35.8h-25V13.3h10.2c0.4,0,0.8-0.4,0.8-0.8
		V2.4h14.1V35.8z"/>
	<path class="st0" d="M7.8,17.5c-0.4,0-0.8,0.4-0.8,0.8c0,0.4,0.4,0.8,0.8,0.8H25c0.4,0,0.8-0.4,0.8-0.8c0-0.4-0.4-0.8-0.8-0.8H7.8z
		"/>
	<path class="st0" d="M7.8,23.4h8.6c0.4,0,0.8-0.4,0.8-0.8c0-0.4-0.4-0.8-0.8-0.8H7.8c-0.4,0-0.8,0.4-0.8,0.8
		C7,23,7.3,23.4,7.8,23.4z"/>
	<path class="st0" d="M20.6,21.8c-0.4,0-0.8,0.4-0.8,0.8c0,0.4,0.4,0.8,0.8,0.8h4.7c0.4,0,0.8-0.4,0.8-0.8c0-0.4-0.4-0.8-0.8-0.8
		H20.6z"/>
	<path class="st0" d="M7.8,27.6H25c0.4,0,0.8-0.4,0.8-0.8c0-0.4-0.4-0.8-0.8-0.8H7.8C7.3,26,7,26.4,7,26.8C7,27.2,7.3,27.6,7.8,27.6
		z"/>
	<path class="st0" d="M25.3,30.3h-8.6c-0.4,0-0.8,0.4-0.8,0.8c0,0.4,0.4,0.8,0.8,0.8h8.6c0.4,0,0.8-0.4,0.8-0.8
		C26.1,30.6,25.7,30.3,25.3,30.3z"/>
	<path class="st0" d="M12.5,30.3H7.8c-0.4,0-0.8,0.4-0.8,0.8c0,0.4,0.4,0.8,0.8,0.8h4.7c0.4,0,0.8-0.4,0.8-0.8
		C13.3,30.6,12.9,30.3,12.5,30.3z"/>
</g>
<polyline class="st1" points="0,53 34,53 50.6,27.4 "/>
</svg>
