<?xml version="1.0" encoding="utf-8"?>
<!-- Generator: Adobe Illustrator 19.0.0, SVG Export Plug-In . SVG Version: 6.00 Build 0)  -->
<svg version="1.1" id="Layer_1" xmlns="http://www.w3.org/2000/svg" xmlns:xlink="http://www.w3.org/1999/xlink" x="0px" y="0px"
	 viewBox="0 0 25.6 32.8" style="enable-background:new 0 0 25.6 32.8;" xml:space="preserve">
<style type="text/css">
	.st0{fill:#B60000;}
</style>
<g>
	<path class="st0" d="M23.6,0H11.4c-0.5,0-1.1,0.2-1.4,0.6L0.6,9.9C0.2,10.3,0,10.8,0,11.4v19.4c0,1.1,0.9,2.1,2.1,2.1h21.5
		c1.1,0,2.1-0.9,2.1-2.1V2.1C25.6,0.9,24.7,0,23.6,0z M10.1,3.3v6.8H3.4L10.1,3.3z M23.6,30.8H2.1V11.4h8.8c0.4,0,0.7-0.3,0.7-0.7
		V2.1h12.1V30.8z"/>
	<path class="st0" d="M5.2,15.1c-0.4,0-0.7,0.3-0.7,0.7c0,0.4,0.3,0.7,0.7,0.7H20c0.4,0,0.7-0.3,0.7-0.7c0-0.4-0.3-0.7-0.7-0.7H5.2z
		"/>
	<path class="st0" d="M5.2,20.1h7.4c0.4,0,0.7-0.3,0.7-0.7c0-0.4-0.3-0.7-0.7-0.7H5.2c-0.4,0-0.7,0.3-0.7,0.7
		C4.5,19.8,4.8,20.1,5.2,20.1z"/>
	<path class="st0" d="M16.2,18.7c-0.4,0-0.7,0.3-0.7,0.7c0,0.4,0.3,0.7,0.7,0.7h4c0.4,0,0.7-0.3,0.7-0.7c0-0.4-0.3-0.7-0.7-0.7H16.2
		z"/>
	<path class="st0" d="M5.2,23.7H20c0.4,0,0.7-0.3,0.7-0.7c0-0.4-0.3-0.7-0.7-0.7H5.2c-0.4,0-0.7,0.3-0.7,0.7
		C4.5,23.4,4.8,23.7,5.2,23.7z"/>
	<path class="st0" d="M20.2,26h-7.4c-0.4,0-0.7,0.3-0.7,0.7c0,0.4,0.3,0.7,0.7,0.7h7.4c0.4,0,0.7-0.3,0.7-0.7
		C20.9,26.3,20.6,26,20.2,26z"/>
	<path class="st0" d="M9.2,26h-4c-0.4,0-0.7,0.3-0.7,0.7c0,0.4,0.3,0.7,0.7,0.7h4c0.4,0,0.7-0.3,0.7-0.7C9.9,26.3,9.6,26,9.2,26z"/>
</g>
</svg>
