<svg id="Camada_1" data-name="Camada 1" xmlns="http://www.w3.org/2000/svg" viewBox="0 0 163.72 107.88"><title>teste</title><path d="M3,100.44a3.69,3.69,0,1,1,0,7.37H0v-7.37H3ZM0.84,107H3a2.88,2.88,0,1,0,0-5.76H0.84V107Z" style="fill:#fff"/><path d="M13,107.81H12.15v-2.5l-2.85-4.87h0.87l2.39,3.84,2.36-3.84h0.86L13,105.29v2.53Z" style="fill:#fff"/><path d="M24.31,107.81l-4.42-5.92v5.92H19v-7.37h0.87l4.42,5.93v-5.93h0.83v7.37H24.31Z" style="fill:#fff"/><path d="M30.16,106l-0.82,1.86h-0.9l3.31-7.37h0.87l3.3,7.37H35L34.18,106h-4Zm2-4.55-1.64,3.74h3.31Z" style="fill:#fff"/><path d="M45.86,107.81v-6.08L43.16,107H42.65L40,101.74v6.08h-0.8v-7.37h1l2.7,5.31,2.69-5.31h1v7.37H45.86Z" style="fill:#fff"/><path d="M51,107.81v-7.37h0.84v7.37H51Z" style="fill:#fff"/><path d="M62,101.5l-0.51.64a3.1,3.1,0,0,0-2.18-.93,2.91,2.91,0,1,0,0,5.81,3.21,3.21,0,0,0,2.18-.88L62,106.72a4.07,4.07,0,0,1-2.74,1.14,3.72,3.72,0,1,1,0-7.43A4,4,0,0,1,62,101.5Z" style="fill:#fff"/><path d="M71.61,107.81l-1.37-5.1-1.39,5.1H66.91l-2.41-7.37h2l1.44,5.42,1.41-5.42h1.83l1.44,5.42,1.42-5.42H76l-2.43,7.37H71.61Z" style="fill:#fff"/><path d="M78.73,107.81v-7.37H80.6v7.37H78.73Z" style="fill:#fff"/><path d="M89.33,107.81l-3.39-4.54v4.54H84.18v-7.37h1.65l3.4,4.55v-4.55H91v7.37H89.33Z" style="fill:#fff"/><path d="M99.71,107.81l-3.39-4.54v4.54H94.56v-7.37h1.65l3.4,4.55v-4.55h1.75v7.37H99.71Z" style="fill:#fff"/><path d="M106.81,101.92v1.46h3.52v1.47h-3.52v1.48h4v1.47h-5.89v-7.37h5.77v1.47h-3.9Z" style="fill:#fff"/><path d="M117.48,105.74H116v2.07h-1.87v-7.37h3.3c1.95,0,3.06.93,3.06,2.57a2.46,2.46,0,0,1-1.34,2.37l1.55,2.43h-2.13Zm-0.05-1.47a1.12,1.12,0,0,0,1.28-1.19,1.1,1.1,0,0,0-1.28-1.16H116v2.35h1.42Z" style="fill:#fff"/><path d="M129.59,101.18l-0.71,1.46a5.49,5.49,0,0,0-2.36-.77c-0.48,0-.81.18-0.81,0.54,0,1.27,3.9.55,3.9,3.21,0,1.47-1.31,2.25-2.95,2.25a5.49,5.49,0,0,1-3.37-1.18l0.73-1.44a4.59,4.59,0,0,0,2.66,1.11c0.59,0,1-.22,1-0.64,0-1.31-3.9-.53-3.9-3.14,0-1.36,1.17-2.22,2.94-2.22A5.53,5.53,0,0,1,129.59,101.18Z" style="fill:#fff"/><path d="M19.66,87" style="fill:#fff"/><path d="M138.39,31.58L119.82,65.94,113,38.86l-20.91.38L76.81,67l-1.14,2.1L70.94,54.25,100.41,0,75.1,8,63,30.35a2.38,2.38,0,0,0-.4-0.65l0,0c-4-5.89-14.24-7.83-19.52-8.15a41.27,41.27,0,0,0-8.49.55c-8.07,1.18-16.19,5.18-22.11,16.08C6.37,49.42,2.7,56.88,2,58.56-3.24,71.42,3.15,82.11,9.29,85.21c6.12,3.74,13.47,3.55,18.05,3.55H52l7.53-13.86,5.27,13.86h20.7l14.93-27.68,7.25,27.68h20.12L163.72,23ZM45.59,62.41c-4.73,8-10.92,10.65-18.66,8.56-6.32-1.7-7.12-7.84-2.48-16.34,0.35-.64,3.77-6.43,3.77-6.43,3.55-5.64,8.81-8.55,15.37-6.35a12.09,12.09,0,0,1,7.07,6l0,0a8.94,8.94,0,0,1,.58,1.34l0.54,1.93Z" style="fill:#fff"/></svg>